<?xml version="1.0" standalone="no"?>
<!DOCTYPE svg PUBLIC "-//W3C//DTD SVG 20010904//EN"
 "http://www.w3.org/TR/2001/REC-SVG-20010904/DTD/svg10.dtd">
<svg version="1.0" xmlns="http://www.w3.org/2000/svg"
 width="640.000000pt" height="640.000000pt" viewBox="0 0 640.000000 640.000000"
 preserveAspectRatio="xMidYMid meet">
<metadata>
Created by potrace 1.11, written by Peter Selinger 2001-2013
</metadata>
<g transform="translate(0.000000,640.000000) scale(0.100000,-0.100000)"
fill="#000000" stroke="none">
<path d="M4088 4790 c-80 -14 -161 -41 -223 -73 -82 -43 -209 -172 -258 -261
-70 -129 -131 -320 -171 -535 -9 -47 -18 -86 -20 -88 -2 -3 -43 25 -91 60
-407 301 -943 340 -1385 100 -96 -52 -241 -165 -316 -246 -301 -330 -411 -770
-299 -1199 126 -486 529 -851 1030 -934 133 -21 363 -14 485 16 247 60 415
155 648 365 49 44 125 106 170 138 126 92 215 221 281 410 50 142 61 191 147
657 73 395 159 608 305 751 136 135 315 193 577 187 78 -2 142 -2 142 0 0 2
-147 150 -326 330 l-327 327 -161 2 c-89 1 -182 -2 -208 -7z m345 -88 c20 -20
37 -40 37 -44 0 -4 -37 -8 -83 -8 l-83 0 -43 44 -44 45 39 3 c89 8 137 -2 177
-40z m-294 -26 l43 -44 -67 -22 -67 -22 -40 40 c-22 22 -37 45 -34 51 6 10 86
39 111 40 6 1 30 -19 54 -43z m-219 -101 l44 -44 -28 -22 c-16 -12 -37 -31
-47 -43 l-19 -20 -45 44 -45 44 42 43 c23 24 45 43 48 43 3 0 26 -20 50 -45z
m-157 -160 c21 -20 37 -41 37 -46 0 -8 -42 -89 -56 -108 -2 -2 -22 15 -45 36
-34 32 -41 45 -36 64 8 31 44 89 55 89 5 0 25 -16 45 -35z m1108 -151 c21 -21
39 -41 39 -44 0 -3 -38 -5 -85 -5 l-84 0 -41 40 c-35 34 -38 41 -23 47 10 4
49 6 86 4 64 -3 71 -6 108 -42z m-293 -27 l41 -42 -66 -23 -66 -24 -45 45 -44
45 53 20 c30 12 61 21 69 21 9 1 35 -18 58 -42z m-900 -141 l-24 -66 -44 45
-43 44 12 43 c7 23 17 53 22 67 l10 25 45 -46 46 -45 -24 -67z m679 42 l43
-42 -47 -43 -47 -44 -46 46 -45 46 44 40 c24 21 46 39 49 39 4 0 26 -19 49
-42z m-119 -200 c2 -4 -11 -33 -29 -64 l-32 -56 -45 45 -44 45 33 55 33 56 40
-37 c23 -19 42 -39 44 -44z m-653 22 l41 -41 -14 -69 c-9 -39 -18 -70 -22 -70
-3 0 -23 18 -45 40 l-38 39 12 71 c7 38 16 70 19 70 3 0 25 -18 47 -40z m-503
-177 c177 -79 226 -310 97 -457 -73 -84 -204 -117 -310 -77 -122 46 -189 143
-189 273 1 63 5 81 33 132 38 70 86 112 159 138 64 23 145 19 210 -9z m1035
-126 l-22 -68 -44 45 -44 45 13 48 c25 91 26 91 76 42 l44 -44 -23 -68z
m-1942 -21 c106 -49 165 -142 165 -261 -1 -207 -196 -339 -394 -265 -57 22
-118 78 -153 141 -27 51 -25 200 4 254 29 54 88 109 143 134 65 30 169 28 235
-3z m1849 -115 l38 -39 -13 -71 c-6 -39 -15 -71 -18 -71 -12 0 -89 84 -86 94
2 6 9 37 15 69 6 31 15 57 19 57 4 0 24 -18 45 -39z m-25 -371 c-6 -36 -14
-68 -18 -72 -4 -5 -26 11 -48 35 -41 42 -42 42 -32 92 19 108 14 104 65 54
l44 -44 -11 -65z m-41 -196 c6 -3 -30 -144 -37 -144 -4 0 -24 18 -45 39 l-39
40 13 63 c7 35 15 67 18 71 2 5 23 -8 45 -30 23 -21 43 -39 45 -39z m-456 8
c54 -23 110 -77 140 -135 18 -34 23 -58 23 -127 0 -76 -3 -91 -30 -138 -48
-88 -127 -140 -225 -149 -189 -17 -344 151 -310 336 34 184 231 289 402 213z
m-894 -32 c50 -46 16 -130 -52 -130 -39 0 -76 37 -76 75 0 12 9 34 21 49 26
33 75 35 107 6z m-575 -203 c59 -25 130 -101 151 -164 37 -107 11 -217 -69
-299 -139 -141 -369 -103 -460 76 -47 93 -40 201 18 286 81 119 224 159 360
101z m1846 -97 c-12 -36 -23 -67 -25 -69 -6 -7 -43 43 -44 58 0 8 5 43 11 79
l11 64 34 -34 34 -34 -21 -64z m-80 -154 c10 -11 9 -22 -5 -48 -50 -98 -75
-98 -41 0 23 66 28 70 46 48z m-940 -170 c105 -54 168 -164 159 -281 -12 -144
-119 -251 -264 -263 -168 -13 -309 119 -308 288 1 215 222 352 413 256z"/>
</g>
</svg>
