<?xml version="1.0" standalone="no"?>
<!DOCTYPE svg PUBLIC "-//W3C//DTD SVG 20010904//EN"
 "http://www.w3.org/TR/2001/REC-SVG-20010904/DTD/svg10.dtd">
<svg version="1.0" xmlns="http://www.w3.org/2000/svg"
 width="640.000000pt" height="640.000000pt" viewBox="0 0 640.000000 640.000000"
 preserveAspectRatio="xMidYMid meet">
<metadata>
Created by potrace 1.11, written by Peter Selinger 2001-2013
</metadata>
<g transform="translate(0.000000,640.000000) scale(0.100000,-0.100000)"
fill="#000000" stroke="none">
<path d="M3048 6135 c-2 -1 -34 -5 -73 -9 -38 -3 -83 -8 -100 -11 -16 -2 -50
-7 -75 -10 -145 -20 -496 -117 -581 -160 -16 -9 -31 -15 -34 -15 -22 3 -284
-131 -401 -204 -49 -31 -98 -62 -109 -69 -11 -6 -22 -14 -25 -17 -3 -3 -25
-21 -50 -40 -163 -123 -434 -397 -546 -550 -26 -36 -51 -66 -56 -68 -4 -2 -8
-10 -8 -17 0 -8 -6 -20 -13 -27 -19 -19 -119 -186 -121 -203 -1 -8 -5 -18 -9
-22 -8 -7 -53 -100 -104 -213 -28 -61 -100 -257 -107 -292 -3 -13 -12 -48 -21
-78 -8 -30 -18 -68 -21 -85 -3 -16 -10 -50 -15 -75 -6 -25 -13 -58 -15 -75 -3
-16 -7 -41 -9 -55 -24 -147 -24 -642 0 -747 11 -50 13 -60 20 -103 19 -120
101 -409 132 -465 10 -16 16 -32 15 -35 -6 -11 83 -201 146 -315 50 -91 117
-198 147 -236 11 -14 27 -36 35 -49 8 -12 20 -28 25 -34 6 -6 34 -41 64 -76
108 -129 322 -335 478 -460 103 -83 392 -243 584 -324 133 -55 408 -136 519
-151 8 -2 29 -5 45 -8 145 -28 403 -47 472 -36 5 1 13 0 18 -1 24 -4 153 3
215 13 19 3 62 9 95 12 33 4 63 9 66 11 4 2 24 6 45 9 161 24 435 110 609 190
33 16 62 29 65 30 3 0 21 9 40 20 19 11 37 19 40 20 3 0 54 29 114 64 142 83
267 171 357 251 131 116 340 331 412 425 86 111 208 308 268 434 58 120 89
189 89 196 0 4 6 21 14 38 19 45 40 100 42 112 1 6 9 33 19 60 9 28 18 57 20
65 2 8 11 44 20 80 9 36 19 74 21 85 2 11 6 31 9 45 14 71 21 114 30 180 24
177 24 450 0 660 -5 44 -26 163 -29 169 -2 3 -7 24 -10 46 -11 66 -52 219 -79
290 -6 17 -12 35 -13 41 -1 5 -14 39 -28 75 -15 35 -28 69 -29 74 -2 6 -21 49
-45 98 -23 48 -42 90 -41 93 0 4 -3 10 -8 13 -5 3 -15 20 -23 36 -31 63 -143
245 -151 245 -5 0 -9 6 -9 13 0 7 -11 24 -25 39 -14 15 -25 31 -25 37 0 5 -4
11 -8 13 -4 2 -21 21 -37 43 -48 63 -230 254 -326 340 -28 25 -123 103 -179
148 -104 83 -374 238 -525 302 -80 34 -276 104 -303 108 -15 3 -40 10 -55 16
-16 6 -33 9 -38 5 -5 -3 -9 0 -9 5 0 6 -3 10 -7 10 -5 -1 -10 0 -13 1 -6 2
-25 6 -65 13 -16 3 -41 8 -55 12 -14 3 -36 7 -50 10 -14 2 -41 7 -60 11 -59
11 -108 14 -315 19 -110 3 -208 8 -217 9 -9 2 -18 3 -20 1z m427 -229 c17 -3
48 -8 70 -11 101 -14 127 -19 255 -50 95 -23 296 -93 363 -126 31 -15 61 -29
65 -29 10 -2 125 -60 138 -71 6 -5 13 -7 16 -4 3 3 11 -1 18 -10 7 -8 19 -15
26 -15 8 0 14 -4 14 -10 0 -5 5 -10 11 -10 6 0 38 -18 70 -40 32 -22 61 -40
63 -40 5 0 168 -121 196 -145 36 -31 248 -244 282 -282 63 -72 228 -303 228
-320 0 -3 8 -17 19 -31 72 -103 232 -483 257 -612 3 -14 9 -38 14 -55 8 -28
11 -44 25 -127 3 -18 10 -55 16 -83 20 -104 32 -475 15 -475 -5 0 -3 -6 3 -13
6 -8 9 -16 6 -18 -2 -3 -6 -43 -10 -89 -3 -47 -10 -110 -15 -140 -6 -30 -12
-71 -15 -90 -3 -19 -8 -48 -12 -65 -9 -40 -8 -35 -17 -75 -14 -64 -88 -284
-118 -350 -171 -372 -326 -597 -582 -839 -33 -31 -70 -66 -83 -79 -13 -12 -28
-22 -32 -22 -5 0 -11 -7 -15 -15 -3 -8 -10 -15 -15 -15 -6 0 -21 -10 -35 -23
-30 -28 -203 -145 -276 -186 -51 -29 -219 -114 -230 -116 -3 -1 -21 -8 -40
-17 -79 -34 -258 -95 -306 -104 -15 -3 -34 -9 -43 -13 -9 -5 -34 -12 -56 -15
-22 -4 -47 -8 -55 -11 -8 -2 -31 -6 -50 -9 -19 -3 -46 -8 -60 -10 -75 -14
-116 -18 -220 -22 -308 -11 -518 6 -740 61 -36 9 -71 17 -77 17 -7 1 -13 5
-13 10 0 5 -4 7 -8 4 -11 -7 -167 48 -299 104 -195 84 -337 166 -508 294 -113
85 -125 97 -260 232 -131 133 -131 133 -192 214 -23 30 -50 66 -61 80 -88 117
-248 418 -300 565 -5 17 -14 39 -18 50 -8 23 -7 17 -24 75 -7 25 -14 50 -16
55 -1 6 -9 35 -18 65 -8 30 -18 67 -21 83 -7 39 -14 73 -21 105 -3 15 -7 38
-9 52 -2 14 -4 25 -5 25 0 0 -3 20 -5 45 -2 25 -7 65 -10 90 -6 49 -7 371 -1
435 4 41 13 106 22 160 3 17 7 39 9 50 4 28 17 98 20 110 9 42 21 83 45 165
16 52 30 100 31 105 1 6 13 33 25 61 13 29 20 55 17 58 -4 3 -1 6 5 6 7 0 12
7 12 16 0 8 28 70 61 137 34 67 67 132 73 144 6 13 14 23 19 23 4 0 7 5 7 11
0 5 18 37 40 69 22 32 40 63 40 69 0 5 6 14 13 18 8 4 22 22 33 38 10 17 21
32 25 35 4 3 24 28 45 55 74 99 235 261 341 345 10 8 39 32 64 52 117 95 456
290 559 322 14 5 27 9 30 11 27 12 77 29 83 27 4 -1 7 3 7 10 0 6 3 9 6 5 3
-3 18 -1 33 5 107 43 362 97 536 114 33 3 61 7 63 9 5 4 423 -4 457 -9z"/>
<path d="M4089 4766 c-2 -3 -18 -7 -34 -10 -17 -3 -77 -19 -135 -35 -98 -27
-151 -41 -175 -46 -50 -12 -263 -68 -275 -72 -8 -3 -19 -7 -25 -9 -5 -1 -55
-14 -110 -29 -55 -14 -109 -28 -119 -30 -10 -2 -58 -16 -107 -30 -48 -14 -96
-26 -106 -28 -10 -2 -25 -6 -33 -9 -8 -3 -69 -20 -135 -38 -66 -17 -219 -58
-340 -91 -121 -33 -228 -62 -237 -65 -10 -2 -26 -6 -35 -9 -10 -2 -36 -9 -58
-15 -22 -6 -47 -13 -55 -15 -60 -17 -169 -47 -190 -51 -43 -9 -53 -26 -41 -70
5 -22 12 -50 15 -64 3 -14 16 -68 31 -120 32 -119 34 -126 39 -148 7 -31 28
-106 34 -122 3 -8 7 -19 8 -25 1 -5 3 -12 4 -15 10 -26 12 -118 16 -610 4
-676 5 -681 35 -744 29 -63 104 -139 166 -169 l48 -23 935 1 935 0 44 25 c72
40 152 128 171 186 10 30 14 185 16 660 l2 622 -26 4 c-15 2 -507 3 -1094 3
-587 0 -1064 2 -1060 5 9 8 70 28 102 34 14 3 50 12 80 21 53 15 78 22 110 30
8 2 15 4 15 5 0 1 11 4 25 7 32 6 41 9 60 16 19 7 248 67 275 72 11 2 20 4 20
5 0 1 7 3 15 5 8 2 76 20 150 40 74 20 143 38 153 40 9 2 21 6 25 9 5 3 20 7
34 10 14 2 70 16 124 31 55 15 106 29 114 31 47 11 137 36 150 41 8 3 18 6 22
5 4 -1 20 3 35 9 15 6 35 12 44 14 9 2 69 18 134 35 65 17 125 34 134 36 21 5
193 54 206 59 6 1 20 6 33 10 12 4 23 11 23 16 1 5 2 15 3 22 1 6 -1 19 -5 27
-4 8 -9 29 -12 45 -2 17 -10 50 -17 75 -7 25 -14 54 -15 65 -2 11 -11 45 -20
75 -9 30 -18 66 -21 80 -2 14 -17 68 -32 120 -22 76 -32 96 -48 98 -11 2 -22
1 -25 -2z m-91 -346 c33 -107 32 -110 -63 -137 -44 -13 -85 -21 -91 -19 -15 6
-68 162 -61 180 4 11 57 30 115 42 8 1 16 5 20 8 3 4 17 5 31 3 22 -3 29 -13
49 -77z m-417 -101 c34 -111 34 -118 2 -130 -15 -6 -39 -13 -53 -15 -14 -3
-41 -9 -60 -14 -40 -11 -57 0 -64 40 -2 14 -5 26 -5 28 -1 1 -1 4 -2 7 0 2 -7
26 -15 52 -13 44 -13 49 3 60 9 7 25 14 35 14 19 2 36 5 41 8 1 2 13 5 26 7
14 2 27 6 29 9 2 2 14 0 25 -4 15 -6 27 -25 38 -62z m-399 -139 c16 -64 17
-95 3 -96 -5 0 -17 -3 -25 -7 -8 -3 -43 -14 -78 -23 -66 -18 -83 -14 -88 23
-2 10 -12 43 -22 74 -25 75 -17 85 89 108 l84 18 12 -21 c6 -12 17 -46 25 -76z
m-448 -16 c9 -3 16 -16 16 -28 0 -13 3 -26 7 -30 4 -3 9 -17 11 -29 5 -30 10
-52 12 -52 1 0 3 -10 6 -22 3 -16 -2 -24 -19 -29 -12 -4 -24 -7 -27 -7 -3 0
-15 -3 -28 -8 -12 -5 -34 -11 -47 -14 -14 -3 -35 -7 -48 -10 -20 -4 -25 1 -37
43 -15 51 -17 60 -23 110 -4 27 2 39 17 30 2 -2 13 5 23 15 11 9 22 15 25 12
2 -3 22 1 44 9 47 17 48 18 68 10z m-392 -155 c5 -19 11 -43 14 -54 4 -11 9
-37 11 -57 5 -34 3 -38 -23 -44 -16 -3 -54 -13 -84 -20 -30 -8 -58 -14 -62
-14 -7 0 -40 56 -37 62 1 3 -15 69 -27 110 -6 19 10 26 91 43 22 4 46 11 54
15 26 14 55 -5 63 -41z m1817 -681 c8 -23 6 -292 -3 -306 -3 -6 -2 -13 3 -17
7 -3 7 -15 1 -29 -5 -13 -6 -26 -3 -29 8 -9 9 -117 1 -117 -4 0 -4 -11 1 -23
5 -13 6 -30 1 -37 -4 -7 -4 -25 0 -40 4 -15 4 -33 0 -40 -4 -7 -4 -25 0 -41 5
-15 6 -30 3 -32 -2 -3 -6 -61 -7 -129 -3 -130 -12 -163 -49 -177 -32 -12 -91
-13 -984 -14 l-813 -2 -31 31 -30 31 -3 491 c-1 325 2 493 8 495 6 2 435 3
955 3 882 -1 944 -2 950 -18z"/>
</g>
</svg>
